<?xml version="1.0" encoding="UTF-8"?>
<svg xmlns="http://www.w3.org/2000/svg" xmlns:xlink="http://www.w3.org/1999/xlink" viewBox="0 0 32 32" version="1.1" fill="#000000"><g id="surface1" fill="#000000"><path style=" " d="M 9 7 C 5.699219 7 3 9.699219 3 13 C 3 14.984375 3.976563 16.75 5.46875 17.84375 C 2.832031 19.152344 1 21.863281 1 25 L 3 25 C 3 21.675781 5.675781 19 9 19 C 12.324219 19 15 21.675781 15 25 L 17 25 C 17 21.675781 19.675781 19 23 19 C 26.324219 19 29 21.675781 29 25 L 31 25 C 31 21.875 29.1875 19.160156 26.5625 17.84375 C 27.351563 17.371094 28.089844 16.828125 28.75 16.28125 C 30.335938 14.972656 31.46875 13.65625 31.46875 13.65625 L 32.0625 13 L 31.5 12.34375 C 31.5 12.34375 30.355469 11.027344 28.78125 9.71875 C 27.207031 8.410156 25.203125 7 23 7 C 19.699219 7 17 9.699219 17 13 C 17 14.984375 17.976563 16.75 19.46875 17.84375 C 18.011719 18.566406 16.789063 19.707031 16 21.125 C 15.210938 19.707031 13.988281 18.566406 12.53125 17.84375 C 14.023438 16.75 15 14.984375 15 13 C 15 9.699219 12.300781 7 9 7 Z M 9 9 C 11.222656 9 13 10.777344 13 13 C 13 15.222656 11.222656 17 9 17 C 6.777344 17 5 15.222656 5 13 C 5 10.777344 6.777344 9 9 9 Z M 23 9 C 24.230469 9 26.070313 10.089844 27.5 11.28125 C 28.535156 12.140625 28.902344 12.589844 29.28125 13 C 28.894531 13.410156 28.515625 13.855469 27.46875 14.71875 C 26.019531 15.910156 24.160156 17 23 17 C 20.78125 17 19 15.21875 19 13 C 19 10.78125 20.78125 9 23 9 Z " fill="#000000"/></g></svg>
